<?xml version="1.0" encoding="utf-8"?>
<!-- Generator: Adobe Illustrator 25.4.1, SVG Export Plug-In . SVG Version: 6.00 Build 0)  -->
<svg version="1.1" id="图层_1" xmlns="http://www.w3.org/2000/svg" xmlns:xlink="http://www.w3.org/1999/xlink" x="0px" y="0px"
	 viewBox="0 0 37 33" style="enable-background:new 0 0 37 33;" xml:space="preserve">
<style type="text/css">
	.st0{fill-rule:evenodd;clip-rule:evenodd;fill:#CF98C2;}
	.st1{fill-rule:evenodd;clip-rule:evenodd;fill:url(#Fill-41_00000124874410212852821460000001883221299757651115_);}
	.st2{fill-rule:evenodd;clip-rule:evenodd;fill:url(#Fill-45_00000060728196871647895270000016728232829274690740_);}
	.st3{fill-rule:evenodd;clip-rule:evenodd;fill:#FEFEFE;}
</style>
<g>
	<path id="Fill-15" class="st0" d="M15.4,17.2c-0.1,0-0.1,0-0.2,0c0,0-0.1,0-0.1,0C15.2,17.2,15.3,17.2,15.4,17.2"/>
	
		<linearGradient id="Fill-41_00000102541004252369783880000007138422602507621299_" gradientUnits="userSpaceOnUse" x1="-4044.894" y1="1991.6384" x2="-4043.696" y2="1991.5503" gradientTransform="matrix(22.5032 0 0 -7.7 91022.8359 15339.1338)">
		<stop  offset="0" style="stop-color:#FFFFFF"/>
		<stop  offset="1" style="stop-color:#DBDCDC"/>
	</linearGradient>
	
		<path id="Fill-41" style="fill-rule:evenodd;clip-rule:evenodd;fill:url(#Fill-41_00000102541004252369783880000007138422602507621299_);" d="
		M22.5,0c-4.2,0-7.6,3.4-7.6,7.7H3.8C1.7,7.7,0,6,0,3.8V0.5C0,0.2,0.2,0,0.5,0H22.5L22.5,0z"/>
	
		<linearGradient id="Fill-45_00000163054666116714612230000011265773824844192387_" gradientUnits="userSpaceOnUse" x1="-3676.8167" y1="2196.1462" x2="-3676.8167" y2="2195.4758" gradientTransform="matrix(7.6176 0 0 -25.4964 28027.1875 56001.3906)">
		<stop  offset="0" style="stop-color:#D4D4D4"/>
		<stop  offset="1" style="stop-color:#FFFFFF"/>
	</linearGradient>
	
		<path id="Fill-45" style="fill-rule:evenodd;clip-rule:evenodd;fill:url(#Fill-45_00000163054666116714612230000011265773824844192387_);" d="
		M22.3,29.1c0,2.1-1.7,3.9-3.8,3.9h-3.3c-0.3,0-0.5-0.2-0.5-0.5V15.2l0,0c0-1.4,0.4-2.7,1-3.9c1.3-2.3,3.8-3.8,6.6-3.8V29.1z"/>
	<path id="Fill-43" class="st3" d="M37,0.5v3.3l0,0c0,2.1-1.7,3.8-3.8,3.8H22.3c-2.8,0-5.3,1.5-6.6,3.9c-0.7,1.1-1,2.4-1,3.8V7.7
		c0-4.3,3.4-7.7,7.6-7.7h14.2C36.8,0,37,0.2,37,0.5z"/>
</g>
</svg>
